<?xml version="1.0" standalone="no"?>
<!DOCTYPE svg PUBLIC "-//W3C//DTD SVG 20010904//EN"
 "http://www.w3.org/TR/2001/REC-SVG-20010904/DTD/svg10.dtd">
<svg version="1.0" xmlns="http://www.w3.org/2000/svg"
 width="1080.000000pt" height="1080.000000pt" viewBox="0 0 1080.000000 1080.000000"
 preserveAspectRatio="xMidYMid meet">
<metadata>
Created by potrace 1.11, written by Peter Selinger 2001-2013
</metadata>
<g transform="translate(0.000000,1080.000000) scale(0.100000,-0.100000)"
fill="#000000" stroke="none">
<path d="M0 5400 l0 -5400 5400 0 5400 0 0 5400 0 5400 -5400 0 -5400 0 0
-5400z m8731 1464 c183 -35 327 -103 469 -224 80 -68 77 -68 68 8 -10 80 -4
127 23 171 46 76 196 83 272 12 68 -62 79 -167 47 -426 -24 -190 -24 -391 0
-550 6 -38 11 -111 12 -161 1 -82 -2 -96 -25 -137 -52 -88 -107 -115 -213
-104 -72 7 -112 32 -141 86 -22 41 -23 55 -23 225 0 118 -5 204 -15 249 -22
105 -77 200 -170 293 -136 137 -286 194 -511 194 -171 0 -341 -46 -450 -121
-218 -151 -347 -372 -416 -711 -21 -102 -23 -141 -23 -388 1 -360 17 -455 126
-708 109 -254 285 -428 504 -498 266 -85 579 -37 776 119 60 49 147 157 179
225 34 72 50 150 61 307 16 218 49 270 181 290 66 10 169 -25 202 -68 72 -95
63 -347 -20 -552 -24 -61 -44 -115 -44 -121 0 -23 -123 -195 -179 -252 -126
-125 -264 -213 -431 -275 -142 -53 -232 -68 -436 -74 -206 -7 -322 8 -484 59
-100 32 -246 101 -317 150 -115 79 -252 224 -299 316 -15 30 -33 56 -41 59
-40 16 -156 286 -202 473 -39 160 -51 276 -51 494 0 475 87 794 301 1106 132
193 277 323 455 410 67 33 130 60 141 60 10 0 23 4 29 9 13 12 178 53 249 61
113 14 310 11 396 -6z m-7179 -83 c101 -11 224 -21 273 -22 179 -4 1193 12
1325 21 159 11 404 11 475 0 28 -4 44 -8 37 -9 -8 0 0 -17 22 -43 20 -23 36
-50 36 -60 0 -10 4 -18 9 -18 13 0 12 8 16 -315 2 -154 9 -368 16 -476 6 -108
9 -214 5 -235 -22 -118 -85 -170 -201 -162 -99 6 -143 47 -177 164 -17 58 -22
112 -28 334 -5 174 -12 278 -20 302 -22 64 -58 96 -125 113 -87 23 -405 38
-676 33 -234 -4 -237 -5 -281 -31 -64 -37 -78 -73 -84 -215 -3 -64 -5 -121 -5
-127 1 -5 3 -86 6 -179 4 -139 8 -174 22 -195 10 -14 23 -38 30 -52 15 -36 78
-49 231 -49 136 0 183 11 211 47 38 47 42 86 25 242 -8 79 -12 163 -8 186 16
108 86 165 204 165 78 0 129 -28 159 -88 36 -73 35 -148 -5 -412 -39 -258 -37
-410 12 -775 8 -60 14 -149 14 -196 0 -101 -20 -141 -85 -174 -58 -29 -182
-28 -222 1 -79 59 -94 131 -68 340 9 78 14 156 10 173 -10 48 -50 88 -103 104
-66 21 -237 40 -259 29 -18 -9 -130 -39 -168 -44 -15 -3 -20 -12 -22 -43 -1
-22 -4 -60 -6 -85 -8 -79 -6 -551 3 -660 13 -172 34 -218 111 -241 20 -6 204
-10 454 -10 359 -1 432 1 500 16 92 19 120 32 157 72 58 62 65 119 59 494 -4
223 -4 228 20 275 31 62 71 85 158 92 54 3 77 0 115 -16 40 -18 50 -29 73 -78
23 -50 27 -76 35 -228 12 -234 -6 -791 -27 -864 -19 -64 -66 -113 -124 -130
-44 -14 -507 -6 -1256 20 -170 6 -346 10 -390 10 -123 -1 -375 -18 -425 -30
-82 -19 -184 -24 -269 -13 -139 18 -195 64 -208 169 -10 89 51 187 128 205 15
4 78 0 140 -8 163 -22 182 -20 222 15 19 16 45 54 58 82 l23 53 6 625 c9 907
6 1324 -9 1392 -14 63 -42 111 -84 142 -32 23 -85 26 -239 11 -73 -7 -95 -5
-133 9 -82 32 -128 124 -106 212 17 67 46 103 105 130 62 29 76 29 308 5z
m4087 -6 c92 -32 141 -95 141 -180 0 -131 -93 -197 -246 -175 -106 14 -190 13
-224 -5 -42 -22 -76 -72 -88 -131 -7 -33 -12 -310 -12 -793 -1 -417 -6 -741
-11 -741 -4 0 -6 -7 -3 -15 4 -9 1 -28 -6 -44 -9 -22 -9 -34 0 -50 6 -12 13
-89 15 -172 8 -277 31 -335 136 -350 30 -4 224 -8 432 -8 400 -1 483 6 568 49
40 21 89 73 89 95 0 8 6 18 13 22 18 12 20 35 21 353 1 294 1 295 26 345 35
70 71 87 175 82 111 -5 147 -24 182 -96 35 -69 35 -125 3 -361 -20 -148 -21
-185 -14 -350 14 -291 12 -338 -15 -394 -48 -99 -134 -132 -303 -116 -93 9
-524 32 -573 30 -11 0 -63 1 -115 1 -340 6 -817 -5 -1185 -28 -291 -17 -319
-15 -386 30 -48 32 -69 79 -69 155 0 78 18 122 61 153 38 27 100 31 265 15
109 -10 136 -5 174 34 33 33 48 78 56 165 7 73 21 106 42 98 10 -4 13 -2 8 5
-4 7 -14 12 -22 12 -8 0 -14 10 -14 23 0 12 0 184 -1 382 -1 445 -3 406 19
399 12 -4 14 -3 4 4 -21 15 -31 76 -22 144 4 37 3 75 -3 92 -12 36 -2 402 13
440 7 18 6 26 -2 26 -8 0 -9 28 -5 95 3 56 1 97 -4 101 -5 3 -7 20 -4 38 7 35
-17 150 -41 202 -9 19 -32 43 -51 55 -32 20 -42 21 -126 14 -171 -16 -230 -13
-269 15 -52 35 -71 73 -76 154 -3 62 -1 75 20 105 44 64 69 76 176 79 53 2
186 -6 295 -17 108 -12 247 -21 307 -21 94 0 455 33 485 45 26 9 127 4 164
-10z"/>
<path d="M8454 6816 c-4 -10 -18 -16 -40 -16 -29 0 -34 -3 -34 -25 0 -26 25
-45 59 -45 16 0 21 9 27 45 7 47 0 71 -12 41z m-4 -50 c0 -8 -7 -16 -15 -20
-12 -4 -13 -2 -2 14 14 24 17 25 17 6z"/>
<path d="M8472 6734 c-32 -22 -27 -36 11 -32 24 2 33 8 35 26 4 26 -14 29 -46
6z"/>
<path d="M8283 6733 c-38 -15 6 -37 44 -22 22 8 24 12 13 19 -16 10 -37 11
-57 3z"/>
<path d="M8121 6611 c-7 -5 -10 -14 -7 -20 9 -14 43 -14 51 -1 3 6 0 10 -9 10
-8 0 -16 4 -18 10 -2 5 -9 6 -17 1z"/>
<path d="M7960 6595 c0 -31 36 -53 87 -53 46 0 49 2 45 23 -2 15 -15 26 -38
33 -37 11 -46 -1 -21 -28 6 -7 -3 -2 -21 13 -38 31 -52 34 -52 12z"/>
<path d="M8340 6595 c0 -22 32 -75 46 -75 11 0 14 5 9 18 -7 17 -13 39 -14 55
-1 8 -41 10 -41 2z"/>
<path d="M8233 6579 c-43 -13 -63 -47 -37 -66 22 -16 42 -17 77 0 32 14 44 42
27 62 -14 17 -21 17 -67 4z m20 -29 c-7 -27 5 -25 17 3 l9 22 0 -22 c1 -12 -8
-27 -18 -33 -28 -15 -31 -13 -31 20 0 19 5 30 14 30 9 0 12 -7 9 -20z"/>
<path d="M9378 6513 c-19 -3 -28 -10 -28 -23 0 -26 36 -45 56 -29 14 12 20 60
7 58 -5 -1 -20 -4 -35 -6z"/>
<path d="M7780 6486 c0 -14 -4 -28 -10 -31 -5 -3 -10 -17 -10 -31 0 -20 5 -24
29 -24 17 0 31 6 35 16 8 22 8 22 -11 27 -11 3 -7 5 10 6 45 2 32 39 -20 55
-20 6 -23 4 -23 -18z"/>
<path d="M8023 6483 c-13 -2 -23 -9 -23 -14 0 -5 -15 -8 -32 -7 -29 3 -33 0
-33 -22 0 -18 5 -25 20 -25 11 0 19 6 17 13 -1 8 2 11 8 7 5 -3 10 -2 10 4 0
6 7 8 16 4 9 -3 20 0 26 8 7 10 8 8 3 -8 -7 -25 1 -28 39 -13 19 7 26 17 26
35 0 26 -16 30 -77 18z"/>
<path d="M9292 6384 c4 -21 55 -60 65 -50 13 12 -22 61 -46 64 -17 3 -22 -1
-19 -14z"/>
<path d="M9180 6305 c0 -30 3 -35 24 -35 36 0 41 18 15 46 -31 33 -39 30 -39
-11z"/>
<path d="M9282 6328 c-20 -20 -14 -38 12 -38 32 0 40 14 20 34 -19 19 -17 19
-32 4z"/>
<path d="M7710 6305 c0 -8 -9 -15 -20 -15 -26 0 -26 -20 0 -27 15 -4 18 -9 10
-18 -6 -7 -8 -23 -6 -36 3 -13 5 -31 5 -38 1 -12 4 -12 13 -3 7 7 23 13 38 13
24 1 23 2 -5 9 -24 6 -26 8 -7 9 17 1 22 7 22 26 0 16 6 25 15 25 22 0 19 47
-4 60 -29 15 -61 12 -61 -5z"/>
<path d="M9371 6281 c-32 -15 -41 -31 -18 -31 7 0 18 5 25 12 7 7 12 9 12 6 0
-4 -7 -14 -16 -23 -29 -28 5 -124 40 -112 6 2 15 -6 21 -17 6 -12 21 -22 34
-24 20 -3 22 -1 16 20 -10 31 -20 41 -58 55 -30 11 -30 12 -7 13 22 0 23 2 7
11 -13 8 -22 7 -33 -1 -10 -9 -14 -9 -14 -1 0 6 4 11 9 11 5 0 11 9 14 19 2
11 15 21 28 23 15 2 25 11 27 24 2 17 -3 22 -26 26 -16 2 -43 -3 -61 -11z"/>
<path d="M7562 6214 c0 -27 5 -37 22 -44 l21 -9 -22 0 c-18 -1 -23 -7 -23 -27
0 -26 1 -27 46 -20 26 3 53 6 60 6 9 0 14 12 14 34 0 30 -3 34 -30 38 -16 3
-34 0 -40 -6 -7 -7 -14 -6 -22 2 -9 9 -7 12 10 12 26 0 31 34 6 44 -33 13 -42
6 -42 -30z m58 -79 c0 -8 -4 -15 -10 -15 -5 0 -10 7 -10 15 0 8 5 15 10 15 6
0 10 -7 10 -15z"/>
<path d="M7655 6220 c3 -5 8 -10 11 -10 2 0 4 5 4 10 0 6 -5 10 -11 10 -5 0
-7 -4 -4 -10z"/>
<path d="M7597 6078 c-4 -12 -1 -28 5 -35 10 -13 58 -19 58 -7 0 14 -22 44
-39 54 -15 8 -20 5 -24 -12z"/>
<path d="M9360 6076 c0 -16 26 -46 41 -46 5 0 9 -6 9 -14 0 -8 12 -17 27 -20
29 -8 43 5 43 42 0 19 -5 23 -22 20 -13 -2 -31 5 -40 15 -22 21 -58 23 -58 3z
m80 -46 c0 -5 -4 -10 -10 -10 -5 0 -10 5 -10 10 0 6 5 10 10 10 6 0 10 -4 10
-10z"/>
<path d="M9390 5921 c0 -11 -5 -23 -12 -27 -14 -9 15 -22 50 -23 13 -1 30 -8
38 -16 14 -13 14 -17 0 -30 -20 -21 -36 -19 -36 4 0 14 -5 18 -20 14 -14 -4
-20 0 -20 13 0 9 -2 15 -5 12 -11 -11 7 -59 20 -54 8 3 16 -2 19 -10 3 -8 0
-14 -5 -14 -6 0 -9 -9 -6 -19 3 -14 1 -18 -9 -14 -10 4 -12 0 -8 -13 5 -15 4
-16 -5 -8 -10 9 -10 17 -2 32 14 27 14 32 -3 32 -8 0 -19 -13 -25 -30 -8 -24
-7 -30 5 -30 7 0 14 -5 14 -11 0 -6 14 -9 33 -7 26 2 32 7 31 26 0 17 5 22 23
22 18 0 23 5 23 25 0 14 6 34 12 45 15 24 1 53 -28 58 -10 2 -24 9 -29 16 -6
7 -20 16 -33 20 -18 6 -22 4 -22 -13z m30 -31 c-18 -11 -24 -6 -16 16 5 14 9
15 19 5 9 -9 9 -14 -3 -21z"/>
<path d="M7506 5858 c-27 -39 -21 -58 19 -58 29 0 35 4 35 21 0 25 -17 59 -30
59 -5 0 -16 -10 -24 -22z"/>
<path d="M7542 5784 c-12 -8 -22 -26 -22 -40 0 -21 5 -24 33 -24 26 0 36 6 50
30 10 17 15 35 12 40 -9 15 -48 12 -73 -6z m38 -15 c0 -11 -4 -17 -10 -14 -5
3 -10 13 -10 21 0 8 5 14 10 14 6 0 10 -9 10 -21z"/>
<path d="M9382 5689 c4 -30 33 -48 50 -31 11 11 9 17 -11 33 -30 25 -43 24
-39 -2z"/>
<path d="M7477 4673 c-4 -3 -7 -19 -7 -35 0 -28 0 -28 -30 -13 -42 22 -47 19
-19 -11 24 -26 29 -77 8 -98 -26 -28 8 -34 56 -10 l30 14 -32 -5 c-37 -5 -40
0 -17 26 19 21 54 13 54 -12 0 -11 7 -19 15 -19 20 0 19 12 -6 44 -13 16 -30
26 -46 26 l-26 0 23 20 c13 12 30 18 37 16 9 -4 13 5 13 29 0 30 -3 35 -23 35
-13 0 -27 -3 -30 -7z"/>
<path d="M7564 4636 c-3 -8 4 -24 15 -35 12 -12 21 -17 21 -11 0 5 6 7 13 4
10 -4 12 3 9 26 -3 24 -9 30 -28 30 -14 0 -27 -6 -30 -14z"/>
<path d="M9350 4617 c0 -23 29 -54 55 -59 32 -7 35 22 5 52 -22 22 -60 27 -60
7z"/>
<path d="M7530 4575 c0 -9 9 -15 25 -15 16 0 25 6 25 15 0 9 -9 15 -25 15 -16
0 -25 -6 -25 -15z"/>
<path d="M7592 4536 c-17 -8 -22 -17 -19 -35 4 -19 -2 -26 -29 -37 -19 -8 -34
-19 -34 -24 0 -13 7 -13 33 2 26 14 116 17 120 4 2 -5 15 11 29 35 l27 44 -27
12 c-33 15 -69 14 -100 -1z"/>
<path d="M9380 4490 c0 -28 2 -30 40 -30 33 0 38 3 33 18 -8 23 -33 42 -55 42
-13 0 -18 -8 -18 -30z"/>
<path d="M7354 4456 c-9 -24 5 -36 42 -36 31 0 35 3 32 23 -2 17 -11 23 -36
25 -22 2 -34 -2 -38 -12z"/>
<path d="M9410 4424 c-16 -41 -12 -54 15 -54 20 0 25 5 25 24 0 13 3 31 6 40
4 12 0 16 -15 16 -14 0 -25 -9 -31 -26z"/>
<path d="M7422 4396 c-10 -23 -9 -25 18 -31 16 -4 34 -4 40 0 15 9 8 39 -10
47 -27 12 -37 8 -48 -16z"/>
<path d="M7560 4400 c0 -16 5 -21 23 -18 12 2 22 10 22 18 0 8 -10 16 -22 18
-18 3 -23 -2 -23 -18z"/>
<path d="M7614 4401 c0 -11 7 -19 16 -19 8 0 26 -4 40 -8 24 -7 25 -7 9 17
-21 31 -65 38 -65 10z"/>
<path d="M7718 4354 c-12 -12 11 -32 30 -27 12 3 30 -10 54 -36 23 -26 45 -41
60 -41 22 0 24 4 20 36 -3 21 -11 38 -21 42 -9 3 -18 9 -21 13 -7 10 -114 22
-122 13z m106 -39 c-7 -16 -24 -21 -24 -6 0 8 7 13 27 20 1 1 0 -6 -3 -14z
m44 -33 c2 -7 -2 -10 -12 -6 -9 3 -16 11 -16 16 0 13 23 5 28 -10z"/>
<path d="M8936 4094 c-21 -20 -20 -30 5 -55 16 -16 30 -19 67 -17 45 3 47 4
56 40 5 21 7 40 4 44 -3 3 -22 2 -41 -1 -32 -6 -35 -9 -27 -29 4 -13 5 -29 0
-36 -7 -11 -12 -10 -26 4 -14 15 -15 22 -6 37 7 10 12 21 12 24 0 11 -30 4
-44 -11z m114 -41 c0 -7 -4 -13 -10 -13 -5 0 -10 12 -10 28 0 21 2 24 10 12 5
-8 10 -21 10 -27z"/>
<path d="M9003 4003 c-7 -2 -13 -11 -13 -19 0 -8 -5 -14 -10 -14 -6 0 -5 -8 2
-20 7 -11 21 -20 30 -20 14 0 18 8 18 40 0 40 -3 43 -27 33z"/>
<path d="M7992 3948 c-5 -7 -13 -24 -17 -37 -7 -22 -5 -23 26 -18 19 2 42 0
52 -5 26 -14 46 2 36 30 -13 35 -77 54 -97 30z m48 -8 c0 -5 -4 -10 -10 -10
-5 0 -10 5 -10 10 0 6 5 10 10 10 6 0 10 -4 10 -10z"/>
<path d="M8108 3879 c-21 -12 -24 -42 -5 -56 22 -18 56 -21 67 -8 17 21 -39
78 -62 64z"/>
<path d="M8220 3855 c0 -16 6 -25 15 -25 9 0 15 9 15 25 0 16 -6 25 -15 25 -9
0 -15 -9 -15 -25z"/>
<path d="M2516 6623 c10 -41 12 -43 45 -43 41 0 36 21 -11 48 l-41 23 7 -28z"/>
<path d="M1617 6582 c-24 -27 -22 -62 3 -62 23 0 46 40 37 64 -8 21 -20 20
-40 -2z"/>
<path d="M3340 6575 c0 -8 -9 -15 -20 -15 -11 0 -20 -2 -20 -4 0 -3 18 -23 40
-45 26 -26 35 -41 25 -41 -28 0 -15 -28 15 -32 24 -4 30 -1 25 9 -3 8 -5 23
-5 34 0 10 -5 19 -11 19 -16 0 -39 26 -39 44 0 18 25 22 35 6 9 -14 35 7 35
26 0 10 -13 14 -40 14 -29 0 -40 -4 -40 -15z"/>
<path d="M2073 6560 c5 -18 3 -18 -18 -4 -14 9 -26 11 -29 5 -8 -13 4 -41 18
-41 6 0 4 -5 -4 -10 -11 -7 -7 -10 19 -10 25 0 32 4 28 14 -4 10 -1 13 9 9 19
-7 44 14 44 38 0 15 -7 19 -36 19 -31 0 -36 -3 -31 -20z"/>
<path d="M3580 6561 c0 -11 -9 -22 -19 -26 -25 -8 -35 -34 -16 -41 25 -10 48
4 40 24 -4 12 -3 14 5 6 8 -8 8 -18 -1 -38 -7 -14 -9 -29 -6 -32 12 -12 37 6
37 26 0 14 7 20 21 20 16 0 19 4 14 23 -9 28 -24 43 -52 52 -19 5 -23 2 -23
-14z"/>
<path d="M1980 6553 c0 -23 17 -49 26 -41 3 4 3 15 -1 25 -5 10 -7 21 -7 26 1
4 -2 7 -8 7 -5 0 -10 -8 -10 -17z"/>
<path d="M3043 6539 c-23 -15 -24 -19 -9 -19 11 0 16 -3 12 -7 -4 -4 -17 -8
-29 -8 -15 0 -23 -7 -25 -23 -4 -27 23 -40 49 -24 10 7 30 12 44 12 22 0 25 4
25 39 0 47 -24 58 -67 30z"/>
<path d="M1855 6530 c20 -22 31 -20 22 5 -4 8 -14 15 -23 15 -16 0 -16 -2 1
-20z"/>
<path d="M2386 6538 c-33 -12 -19 -28 27 -28 21 0 28 4 25 17 -4 21 -16 24
-52 11z"/>
<path d="M3407 6544 c-11 -11 -8 -44 4 -44 5 0 7 -6 4 -12 -4 -7 1 -4 10 7 8
11 14 26 13 34 -3 16 -21 25 -31 15z"/>
<path d="M1780 6517 c0 -14 20 -37 32 -37 4 0 8 6 8 14 0 12 5 12 30 3 16 -6
25 -14 19 -18 -7 -4 -5 -8 4 -12 16 -6 57 31 57 51 0 17 -25 15 -40 -3 -7 -8
-17 -15 -22 -15 -5 0 -16 7 -24 15 -19 18 -64 20 -64 2z"/>
<path d="M1954 6499 c-10 -16 8 -31 32 -26 22 4 29 -11 12 -23 -4 -4 -11 -20
-14 -38 -6 -27 -4 -31 10 -26 12 4 16 0 16 -15 0 -16 -6 -21 -24 -21 -33 0
-38 -12 -31 -65 6 -39 10 -43 25 -35 26 14 33 50 9 50 -18 0 -18 1 -1 18 10
10 26 22 36 25 9 4 14 11 11 17 -3 5 1 10 10 10 15 0 14 -4 -4 -34 -27 -43
-27 -46 9 -46 32 0 39 16 18 39 -7 8 -8 11 -3 8 6 -3 9 18 7 60 -3 52 -7 63
-18 59 -9 -3 -12 -1 -9 4 3 6 0 10 -8 10 -8 0 -20 6 -26 14 -15 18 -49 27 -57
15z m86 -74 c0 -8 5 -15 10 -15 6 0 10 -4 10 -9 0 -6 -9 -9 -20 -8 -14 1 -20
8 -20 24 0 13 5 23 10 23 6 0 10 -7 10 -15z"/>
<path d="M3150 6490 c0 -17 6 -20 38 -19 20 0 31 3 25 6 -7 2 -13 11 -13 19 0
8 -10 14 -25 14 -18 0 -25 -5 -25 -20z"/>
<path d="M1811 6471 c-8 -5 -11 -16 -7 -29 9 -26 36 -37 36 -15 0 13 3 14 12
5 18 -18 28 -15 28 9 0 18 -5 21 -29 17 -21 -3 -28 -1 -24 9 6 15 3 16 -16 4z"/>
<path d="M3450 6441 c-16 -31 -12 -38 20 -33 24 3 30 9 30 28 0 30 -34 33 -50
5z"/>
<path d="M3540 6430 c0 -23 31 -27 49 -6 9 11 7 15 -11 20 -35 9 -38 8 -38
-14z"/>
<path d="M1710 6414 c0 -16 5 -36 10 -44 9 -13 12 -12 25 4 17 22 20 56 6 56
-5 0 -16 3 -25 6 -12 5 -16 0 -16 -22z"/>
<path d="M3360 6401 c0 -27 4 -31 26 -31 22 0 25 4 22 28 -2 19 -9 28 -25 30
-20 3 -23 -1 -23 -27z"/>
<path d="M1895 6310 c-17 -19 -17 -20 2 -20 12 0 23 7 26 15 9 23 -9 26 -28 5z"/>
<path d="M3482 6303 c4 -24 29 -27 53 -7 17 13 17 15 3 10 -10 -3 -18 -1 -18
4 0 6 -9 10 -21 10 -14 0 -19 -5 -17 -17z"/>
<path d="M3475 6253 c3 -16 9 -43 12 -60 5 -30 9 -33 40 -33 30 0 34 3 32 23
-1 12 3 35 9 50 16 39 16 40 -20 34 -18 -2 -44 0 -57 4 -22 9 -23 8 -16 -18z
m65 -40 c0 -11 -3 -14 -8 -7 -4 6 -14 14 -22 17 -10 4 -8 6 8 6 15 1 22 -5 22
-16z"/>
<path d="M3453 6205 c0 -22 2 -30 4 -17 2 12 2 30 0 40 -3 9 -5 -1 -4 -23z"/>
<path d="M1994 6222 c-13 -8 0 -52 15 -52 10 0 41 39 41 52 0 10 -41 10 -56 0z"/>
<path d="M1800 6107 c0 -8 9 -22 20 -32 25 -22 45 -8 35 24 -7 24 -55 30 -55
8z"/>
<path d="M2806 6074 c-4 -15 -2 -32 5 -40 6 -7 9 -21 5 -29 -5 -13 2 -15 45
-9 39 5 53 3 60 -7 11 -19 43 0 47 28 4 28 -29 35 -59 12 -33 -25 -40 -24 -29
7 13 34 13 37 -6 30 -13 -5 -15 -2 -11 14 4 17 0 20 -23 20 -22 0 -29 -6 -34
-26z"/>
<path d="M2011 6076 c-13 -7 -32 -11 -43 -8 -24 6 -48 -15 -48 -44 0 -24 14
-31 70 -37 17 -1 24 3 22 12 -4 21 8 52 19 46 5 -4 9 5 9 19 0 14 -1 26 -2 26
-2 -1 -14 -7 -27 -14z m-31 -31 c0 -8 -10 -19 -21 -26 -22 -11 -21 -3 4 29 12
16 17 15 17 -3z"/>
<path d="M1833 6043 c-7 -3 -13 -11 -13 -19 0 -16 45 -20 55 -5 7 12 -25 30
-42 24z"/>
<path d="M1831 5961 c-24 -15 6 -41 45 -41 42 0 47 26 8 40 -31 12 -35 12 -53
1z"/>
<path d="M2889 5958 c-10 -21 -3 -51 12 -55 21 -6 24 -25 9 -54 -9 -16 -7 -19
13 -19 50 0 79 72 35 84 -18 5 -20 8 -9 15 7 5 9 11 5 13 -12 7 -64 19 -65 16z
m61 -84 c0 -8 -4 -12 -10 -9 -5 3 -10 10 -10 16 0 5 5 9 10 9 6 0 10 -7 10
-16z"/>
<path d="M2006 5910 c-32 -35 -30 -45 6 -31 16 6 27 20 30 35 7 34 -1 33 -36
-4z"/>
<path d="M1865 5900 c-3 -5 -15 -10 -26 -10 -30 0 -22 -52 8 -60 17 -4 20 -9
13 -20 -17 -27 -12 -60 10 -60 11 0 20 -6 20 -14 0 -15 26 -46 38 -46 4 0 7
16 7 35 0 25 -4 34 -13 30 -20 -8 -62 5 -62 20 0 6 9 20 20 30 11 10 17 22 14
26 -3 5 5 9 18 9 19 0 20 -2 8 -11 -12 -9 -12 -10 3 -5 10 3 21 6 23 6 3 0 2
5 -1 10 -3 6 -2 10 4 10 23 0 20 -22 -6 -46 -22 -20 -24 -27 -13 -34 8 -5 18
-6 24 -3 5 3 7 2 4 -3 -3 -5 -2 -18 2 -29 12 -33 -8 -75 -35 -75 -13 0 -27 -4
-30 -10 -10 -17 15 -50 38 -50 31 0 51 -15 44 -34 -4 -10 -1 -16 7 -16 26 0
29 51 5 84 -19 26 -20 29 -3 16 10 -8 23 -21 27 -27 4 -7 21 -13 37 -13 27 0
30 3 30 30 0 19 -5 30 -14 30 -7 0 -25 6 -38 13 -20 10 -23 17 -17 34 14 39
-14 85 -41 68 -5 -3 -5 8 0 25 11 39 11 40 -24 73 -31 27 -70 36 -81 17z m56
-22 c10 -18 9 -20 -4 -15 -9 3 -17 2 -19 -4 -2 -5 -9 1 -17 13 -13 21 -13 22
2 9 15 -12 17 -11 17 3 0 22 7 20 21 -6z m71 -150 c-7 -7 -12 -8 -12 -2 0 14
12 26 19 19 2 -3 -1 -11 -7 -17z m-22 -103 c7 -9 10 -18 7 -22 -8 -7 -37 15
-37 28 0 14 16 11 30 -6z"/>
<path d="M2002 5858 c-21 -21 -14 -48 12 -48 34 0 51 24 31 44 -20 19 -27 20
-43 4z"/>
<path d="M3497 5798 c7 -28 22 -48 35 -48 6 0 8 7 4 15 -3 8 0 15 5 15 7 0 9
-9 6 -21 -4 -14 1 -23 16 -29 12 -5 16 -9 10 -9 -7 -1 -13 -12 -13 -26 0 -22
-4 -25 -35 -25 -28 0 -35 -4 -35 -20 0 -11 5 -20 10 -20 6 0 10 -7 10 -15 0
-8 4 -15 9 -15 12 0 41 29 41 41 0 5 20 9 45 9 43 0 45 1 45 30 0 25 -4 30
-23 30 -16 0 -23 6 -23 20 0 13 7 20 18 20 10 0 18 7 18 15 0 9 9 15 23 15
l22 1 -24 19 c-29 25 -67 26 -80 3 -10 -17 -10 -17 -11 0 0 13 -9 17 -39 17
-36 0 -39 -2 -34 -22z m130 -10 c-3 -8 -6 -5 -6 6 -1 11 2 17 5 13 3 -3 4 -12
1 -19z"/>
<path d="M2810 5776 c0 -14 -4 -28 -10 -31 -16 -10 -12 -45 5 -45 8 0 15 7 15
15 0 8 11 17 25 21 30 7 32 25 7 47 -26 24 -42 21 -42 -7z"/>
<path d="M2940 5755 c0 -33 2 -35 35 -35 28 0 35 4 35 19 0 25 -26 51 -51 51
-15 0 -19 -7 -19 -35z"/>
<path d="M3400 5769 c0 -17 20 -49 30 -49 5 0 7 6 4 14 -3 8 -1 17 5 21 19 11
12 25 -14 25 -14 0 -25 -5 -25 -11z"/>
<path d="M2898 5625 c3 -29 8 -35 28 -35 28 0 33 30 8 54 -26 27 -40 20 -36
-19z"/>
<path d="M3464 5614 c3 -9 6 -18 6 -20 0 -3 5 -2 10 1 16 10 12 35 -6 35 -11
0 -14 -5 -10 -16z"/>
<path d="M2846 5582 c-15 -3 -16 -6 -5 -13 9 -7 2 -8 -22 -3 -34 5 -37 4 -48
-27 -6 -17 -11 -33 -11 -35 0 -1 22 -5 48 -9 54 -7 92 -25 55 -25 -19 0 -23
-6 -23 -30 0 -28 3 -30 35 -30 23 0 35 5 35 13 0 8 11 19 25 25 15 7 25 20 25
32 0 22 -15 27 -26 9 -5 -8 -10 -6 -16 5 -11 19 -44 21 -51 4 -2 -7 -3 3 -3
22 1 19 5 40 9 47 9 14 -2 21 -27 15z m-18 -28 c15 -4 22 -14 22 -30 0 -27 0
-27 -34 -14 -16 6 -26 17 -26 30 0 22 3 23 38 14z"/>
<path d="M2660 5537 c0 -8 12 -17 28 -19 15 -3 36 -9 47 -14 19 -8 19 -7 4 16
-19 29 -79 41 -79 17z"/>
<path d="M2660 5500 c0 -3 7 -15 15 -26 8 -10 15 -27 15 -36 0 -11 8 -18 20
-18 21 0 27 24 9 36 -8 4 -8 9 0 17 18 18 13 25 -24 29 -19 2 -35 1 -35 -2z"/>
<path d="M2406 5492 c-3 -3 -6 -16 -6 -28 0 -18 11 -29 42 -45 23 -12 49 -30
58 -41 14 -18 20 -19 38 -9 27 15 20 31 -14 31 -16 0 -24 6 -24 18 -1 36 -74
94 -94 74z m46 -44 c-9 -9 -15 -9 -24 0 -9 9 -7 12 12 12 19 0 21 -3 12 -12z"/>
<path d="M1905 5440 c-2 -4 -2 -23 2 -43 5 -35 8 -37 43 -37 24 0 40 5 44 15
3 8 1 15 -4 15 -6 0 -10 13 -10 29 0 27 -3 29 -36 28 -19 -1 -37 -4 -39 -7z
m44 -13 c14 4 14 3 1 -6 -21 -15 -27 -14 -35 7 -5 13 -3 14 6 5 6 -6 19 -9 28
-6z m31 -47 c0 -5 -9 -10 -19 -10 -11 0 -23 5 -26 10 -4 6 5 10 19 10 14 0 26
-4 26 -10z"/>
<path d="M2230 5433 c0 -24 10 -38 38 -52 30 -16 42 -7 42 35 0 33 -1 34 -40
34 -31 0 -40 -4 -40 -17z"/>
<path d="M2907 5242 c-6 -10 9 -49 23 -57 7 -4 17 -2 23 4 8 8 5 18 -15 36
-15 14 -29 21 -31 17z"/>
<path d="M2777 5102 c-29 -32 -22 -52 18 -52 33 0 35 2 35 35 0 27 -4 35 -18
35 -11 0 -26 -8 -35 -18z"/>
<path d="M2865 5091 c-3 -5 2 -17 11 -25 17 -17 54 -22 54 -7 0 5 3 16 6 25 5
13 -1 16 -29 16 -20 0 -38 -4 -42 -9z"/>
<path d="M1947 4864 c-30 -29 -35 -54 -12 -54 16 0 48 55 43 72 -2 5 -16 -3
-31 -18z"/>
<path d="M2810 4860 c0 -5 7 -10 15 -10 8 0 15 5 15 10 0 6 -7 10 -15 10 -8 0
-15 -4 -15 -10z"/>
<path d="M2871 4857 c-6 -6 -11 -21 -11 -34 0 -19 5 -23 30 -23 26 0 30 3 30
29 0 31 -29 48 -49 28z"/>
<path d="M2750 4831 c0 -34 18 -51 31 -30 17 26 10 59 -11 59 -15 0 -20 -7
-20 -29z"/>
<path d="M2950 4833 c0 -28 16 -47 34 -40 23 9 32 37 15 48 -23 15 -49 10 -49
-8z"/>
<path d="M2952 4698 c3 -16 1 -31 -4 -34 -4 -3 -8 -20 -8 -39 0 -33 1 -34 29
-24 31 11 45 44 37 84 -3 11 -5 23 -5 26 -1 4 -13 9 -27 12 -24 4 -26 2 -22
-25z"/>
<path d="M1775 4310 c-4 -6 -4 -27 -1 -46 6 -31 10 -34 42 -34 l35 0 -3 43
c-3 39 -5 42 -35 45 -17 2 -34 -2 -38 -8z"/>
<path d="M1893 4285 c-7 -8 -13 -22 -13 -33 0 -10 -5 -23 -12 -30 -9 -9 -8
-16 5 -30 9 -10 17 -23 17 -29 0 -13 24 -23 56 -23 19 0 24 5 24 24 0 13 -7
27 -16 30 -22 8 -24 8 -24 -7 0 -8 -7 -14 -15 -14 -13 0 -13 3 2 19 9 10 24
18 33 18 21 0 30 19 30 61 0 27 -3 29 -37 29 -21 -1 -44 -7 -50 -15z m67 -34
c0 -23 -6 -30 -25 -35 -33 -8 -50 1 -35 19 6 7 8 20 4 29 -5 13 0 16 25 16 28
0 31 -3 31 -29z"/>
<path d="M3664 4192 c-28 -24 -19 -42 22 -42 29 0 34 3 34 24 0 13 -7 27 -16
30 -19 7 -15 9 -40 -12z"/>
<path d="M1805 4153 c9 -39 14 -41 35 -13 27 34 25 40 -11 40 -29 0 -31 -2
-24 -27z"/>
<path d="M2671 3991 c-8 -5 -11 -16 -8 -25 10 -25 27 -19 27 9 0 28 0 28 -19
16z"/>
<path d="M3455 3990 c3 -5 10 -10 16 -10 5 0 9 5 9 10 0 6 -7 10 -16 10 -8 0
-12 -4 -9 -10z"/>
<path d="M3223 3953 c-22 -8 -14 -31 14 -38 26 -6 53 13 53 37 0 9 -47 10 -67
1z"/>
<path d="M5602 6708 c7 -20 54 -22 61 -4 5 13 -1 16 -29 16 -24 0 -34 -4 -32
-12z"/>
<path d="M5170 6646 c0 -32 3 -36 25 -36 14 0 25 -4 25 -10 0 -5 9 -10 19 -10
11 0 23 -4 26 -10 21 -34 51 13 35 55 -9 25 -20 30 -87 40 l-43 7 0 -36z m80
4 c0 -5 6 -10 14 -10 20 0 31 -19 18 -32 -17 -17 -47 0 -48 27 -1 14 2 25 7
25 5 0 9 -4 9 -10z"/>
<path d="M5705 6630 c-7 -11 38 -60 55 -60 19 0 9 25 -20 48 -17 13 -31 18
-35 12z"/>
<path d="M5460 6586 c0 -21 30 -48 49 -44 9 2 17 15 19 31 3 25 1 27 -32 27
-25 0 -36 -5 -36 -14z"/>
<path d="M5574 6586 c-3 -7 5 -31 16 -52 12 -22 16 -33 9 -26 -20 19 -29 14
-27 -13 3 -28 7 -30 42 -13 20 9 23 14 15 25 -10 11 -8 12 6 7 14 -6 15 -4 7
12 -6 10 -13 31 -17 47 -6 29 -41 39 -51 13z"/>
<path d="M5170 6566 c0 -12 4 -26 10 -32 7 -7 -2 -9 -25 -6 -20 2 -35 0 -35
-6 0 -16 82 -60 102 -54 36 9 10 104 -32 115 -16 4 -20 0 -20 -17z m41 -55
c-7 -5 -10 -14 -7 -20 4 -6 3 -11 -3 -11 -5 0 -13 5 -17 11 -7 11 12 29 31 29
6 0 4 -4 -4 -9z"/>
<path d="M5670 6540 c0 -28 3 -31 28 -28 21 2 27 8 27 28 0 20 -6 26 -27 28
-25 3 -28 0 -28 -28z"/>
<path d="M5267 6553 c-11 -11 -8 -63 4 -63 6 0 19 5 29 10 13 7 21 7 25 0 3
-5 13 -10 21 -10 17 0 19 41 2 58 -13 13 -70 17 -81 5z"/>
<path d="M4346 6515 c4 -8 10 -15 15 -15 5 0 9 7 9 15 0 8 -7 15 -15 15 -9 0
-12 -6 -9 -15z"/>
<path d="M5377 6511 c6 -24 34 -36 44 -20 12 20 -1 39 -26 39 -18 0 -22 -4
-18 -19z"/>
<path d="M5033 6192 c-2 -11 -13 -22 -24 -25 -10 -3 -19 -12 -19 -21 0 -18 26
-21 64 -7 21 9 23 14 17 37 -9 34 -30 43 -38 16z"/>
<path d="M4817 6162 c-26 -29 -22 -45 10 -37 34 8 53 23 53 41 0 20 -44 17
-63 -4z"/>
<path d="M4937 6173 c-11 -10 -8 -20 8 -27 10 -4 15 1 15 14 0 20 -11 26 -23
13z"/>
<path d="M4863 6083 c-3 -10 -12 -33 -19 -50 -11 -27 -11 -33 0 -33 20 0 36
24 43 64 6 38 -12 52 -24 19z"/>
<path d="M5130 6020 c-29 -9 -28 -10 23 -16 29 -4 38 -1 35 8 -6 16 -25 19
-58 8z"/>
<path d="M5105 5887 c-23 -32 -19 -56 10 -63 30 -7 32 -6 35 21 6 57 -18 80
-45 42z"/>
<path d="M4890 5840 c0 -38 2 -40 30 -40 24 0 30 4 30 21 0 32 -19 59 -40 59
-17 0 -20 -7 -20 -40z"/>
<path d="M5022 5666 c-7 -18 -12 -35 -12 -39 0 -4 25 -7 56 -7 52 0 56 1 51
21 -4 15 0 23 14 26 10 3 19 10 19 15 0 6 -10 8 -22 4 -13 -3 -31 -6 -42 -6
-14 0 -16 -3 -8 -13 15 -17 -1 -39 -21 -31 -19 7 -22 25 -6 41 7 7 6 12 -4 16
-9 3 -18 -6 -25 -27z"/>
<path d="M5080 5550 c0 -6 6 -10 13 -9 6 1 21 1 32 0 17 -1 17 -3 5 -11 -8 -5
-23 -7 -33 -4 -16 5 -17 3 -8 -15 8 -14 21 -21 41 -21 25 0 30 4 30 23 0 13
-5 28 -12 35 -15 15 -68 16 -68 2z"/>
<path d="M4840 5400 c0 -38 2 -40 30 -40 20 0 30 -5 30 -15 0 -17 17 -20 22
-4 6 17 57 -1 63 -22 9 -26 27 -24 55 6 29 31 24 38 -21 25 -19 -6 -35 -7 -37
-3 -11 32 -30 58 -45 61 -20 4 -24 -24 -4 -31 6 -2 9 -7 6 -11 -3 -3 -13 -4
-22 0 -12 4 -14 11 -6 31 14 39 11 43 -31 43 l-40 0 0 -40z"/>
<path d="M4900 5311 c0 -11 26 -22 34 -14 12 12 5 23 -14 23 -11 0 -20 -4 -20
-9z"/>
<path d="M4800 5197 c0 -19 33 -47 53 -47 24 0 22 37 -2 50 -27 14 -51 13 -51
-3z"/>
<path d="M5110 5169 c0 -7 -7 -17 -16 -24 -15 -10 -15 -13 1 -28 25 -26 51
-21 65 13 14 35 14 35 -22 44 -18 4 -28 2 -28 -5z m23 -39 c3 -13 0 -20 -9
-20 -8 0 -14 9 -14 20 0 11 4 20 9 20 5 0 11 -9 14 -20z"/>
<path d="M5057 5094 c-3 -3 -3 -14 0 -25 6 -22 53 -27 53 -6 0 14 -44 40 -53
31z"/>
<path d="M4922 5020 c3 -19 0 -30 -8 -30 -13 0 -24 -22 -24 -51 0 -15 7 -19
35 -19 30 0 35 3 35 23 0 13 -3 27 -7 31 -4 4 -6 23 -4 42 2 26 -1 34 -14 34
-13 0 -16 -7 -13 -30z"/>
<path d="M5050 5000 c0 -5 5 -10 10 -10 6 0 10 5 10 10 0 6 -4 10 -10 10 -5 0
-10 -4 -10 -10z"/>
<path d="M5104 4964 c-15 -22 -15 -27 -3 -35 25 -15 57 -10 73 13 25 35 20 48
-19 48 -26 0 -39 -6 -51 -26z m53 -1 c0 -11 -9 -18 -23 -18 -18 0 -20 3 -13
18 5 9 16 17 24 17 7 0 13 -8 12 -17z"/>
<path d="M6760 4904 c0 -21 4 -24 40 -24 51 0 51 10 0 32 l-40 17 0 -25z"/>
<path d="M4872 4862 c-27 -25 -31 -26 -40 -11 -6 9 -20 19 -31 22 -31 8 -27
-21 5 -35 20 -9 24 -17 19 -36 -8 -31 10 -52 45 -52 25 0 29 5 33 38 3 20 9
52 13 70 8 40 -4 41 -44 4z m21 -42 c-4 -4 -19 -11 -31 -15 -23 -7 -24 -7 -7
19 14 21 20 24 32 15 7 -7 10 -15 6 -19z m-15 -42 c-3 -7 -13 -13 -23 -13 -10
0 -20 6 -22 13 -3 7 5 12 22 12 17 0 25 -5 23 -12z"/>
<path d="M6730 4871 c0 -11 89 -45 97 -37 3 3 -6 10 -21 16 -14 5 -37 14 -51
20 -14 5 -25 6 -25 1z"/>
<path d="M4941 4847 c-6 -8 -10 -29 -9 -49 1 -27 7 -39 29 -52 15 -9 36 -16
47 -16 17 0 20 6 19 38 -2 35 -4 37 -34 36 -18 -1 -30 2 -28 7 3 4 -3 10 -12
12 -14 4 -13 5 5 6 12 0 22 -3 22 -9 0 -5 5 -10 12 -10 9 0 9 3 1 11 -6 6 -9
19 -6 28 4 14 3 14 -6 1 -7 -10 -11 -11 -11 -2 0 16 -15 15 -29 -1z"/>
<path d="M6715 4803 c4 -10 9 -25 12 -34 4 -15 43 -29 79 -29 22 0 16 24 -8
40 -66 43 -94 50 -83 23z"/>
<path d="M4960 4713 c0 -13 22 -33 37 -33 7 0 13 7 13 15 0 8 -4 15 -9 15 -5
0 -16 3 -25 6 -9 3 -16 2 -16 -3z"/>
<path d="M4928 4654 c12 -8 22 -23 21 -32 0 -12 -3 -11 -9 6 -5 12 -14 22 -20
22 -6 0 -3 -11 6 -25 19 -29 27 -31 44 -10 9 11 16 12 30 3 22 -14 52 5 44 27
-7 18 -47 27 -56 12 -6 -9 -8 -9 -8 1 0 7 -14 12 -37 12 -37 0 -37 0 -15 -16z"/>
<path d="M4806 4635 c-10 -28 -7 -35 19 -35 30 0 32 11 6 34 -17 15 -19 15
-25 1z"/>
<path d="M6611 4584 c-12 -15 -21 -33 -21 -40 0 -35 65 2 72 41 7 34 -24 34
-51 -1z"/>
<path d="M5045 4580 c-3 -5 -16 -10 -28 -11 -12 0 -16 -3 -9 -6 6 -2 12 -11
12 -19 0 -18 15 -18 34 2 9 8 16 12 16 8 0 -5 6 -2 12 4 10 10 10 15 -2 22
-19 12 -27 12 -35 0z"/>
<path d="M5120 4550 c-13 -8 -12 -10 3 -10 9 0 17 5 17 10 0 12 -1 12 -20 0z"/>
<path d="M5021 4473 c-6 -10 -11 -12 -11 -5 0 6 -5 12 -11 12 -8 0 -9 -11 -5
-32 9 -44 25 -59 32 -30 4 12 10 22 16 22 5 0 4 -8 -2 -19 -15 -30 -12 -41 13
-41 27 0 53 45 31 54 -9 3 -14 -1 -15 -12 0 -9 -3 -12 -5 -6 -3 6 0 22 5 35 7
17 10 19 10 7 1 -12 9 -18 25 -18 40 0 40 19 2 35 -47 20 -73 19 -85 -2z"/>
<path d="M4868 4450 c-3 -22 0 -31 14 -36 10 -3 22 -2 28 1 16 10 12 52 -6 59
-27 10 -32 7 -36 -24z"/>
<path d="M6646 4435 c-7 -20 20 -45 50 -45 20 0 24 5 24 30 0 27 -3 30 -34 30
-21 0 -36 -6 -40 -15z"/>
<path d="M5110 4400 c0 -14 39 -32 52 -24 7 5 5 11 -7 21 -22 15 -45 17 -45 3z"/>
<path d="M6530 4367 c0 -29 14 -43 53 -52 22 -6 27 -4 27 12 0 23 -25 48 -57
57 -20 6 -23 4 -23 -17z"/>
<path d="M4932 4328 c-16 -16 -15 -48 2 -48 15 0 30 16 39 43 8 20 -22 24 -41
5z"/>
<path d="M6620 4298 c-24 -40 -19 -48 31 -48 39 0 39 0 39 40 0 36 -2 40 -25
40 -18 0 -31 -10 -45 -32z m35 -28 c-3 -5 -13 -10 -21 -10 -8 0 -14 5 -14 10
0 6 9 10 21 10 11 0 17 -4 14 -10z"/>
<path d="M5183 4075 c-3 -9 -3 -19 1 -22 7 -7 36 16 36 28 0 15 -30 10 -37 -6z"/>
<path d="M5501 4071 c-13 -4 -27 -15 -31 -26 -5 -14 -9 -15 -15 -6 -10 17 -25
-4 -25 -36 0 -20 3 -21 25 -13 21 8 25 7 25 -10 0 -11 7 -20 15 -20 17 0 55
35 55 50 0 12 -13 13 -24 3 -3 -4 -14 -8 -22 -9 -14 -2 -14 0 1 16 9 10 23 16
31 13 8 -3 14 -1 14 5 0 5 10 12 22 15 12 4 19 10 15 14 -10 9 -56 11 -86 4z"/>
<path d="M5208 4048 c-16 -5 -28 -14 -28 -19 0 -17 37 -9 55 11 20 22 14 24
-27 8z"/>
<path d="M5324 4033 c-17 -17 -17 -18 6 -21 18 -3 20 -6 9 -13 -11 -7 -11 -9
3 -9 23 0 33 19 13 26 -12 5 -13 9 -5 14 8 5 9 10 2 14 -6 3 -18 -2 -28 -11z"/>
<path d="M5258 4013 c7 -3 16 -2 19 1 4 3 -2 6 -13 5 -11 0 -14 -3 -6 -6z"/>
<path d="M5185 4000 c-3 -5 -2 -10 4 -10 5 0 9 -14 9 -30 -2 -64 54 -65 60 -1
3 30 2 31 -22 21 -23 -8 -26 -7 -26 10 0 21 -15 27 -25 10z"/>
<path d="M6145 4001 c-7 -12 26 -31 54 -31 28 0 27 26 -1 34 -32 8 -46 7 -53
-3z"/>
<path d="M5297 3983 c-12 -11 -8 -23 8 -23 8 0 15 7 15 15 0 16 -12 20 -23 8z"/>
<path d="M4276 3935 c-4 -14 -2 -33 3 -43 8 -13 10 -8 11 26 0 48 -5 54 -14
17z"/>
<path d="M4230 3890 c0 -5 9 -10 21 -10 11 0 17 5 14 10 -3 6 -13 10 -21 10
-8 0 -14 -4 -14 -10z"/>
<path d="M4313 3853 c-7 -2 -13 -8 -13 -13 0 -10 38 -1 46 11 6 10 -13 11 -33
2z"/>
</g>
</svg>
